<mxfile host="app.diagrams.net" modified="2024-02-10T21:53:08.311Z" agent="Mozilla/5.0 (Windows NT 10.0; Win64; x64) AppleWebKit/537.36 (KHTML, like Gecko) Chrome/121.0.0.0 Safari/537.36" etag="J700wgzSOQTamTxJaZ-L" version="23.1.2" type="device">
  <diagram name="Page-1" id="lC5umMjdHUD5bCQxXtSJ">
    <mxGraphModel dx="947" dy="1096" grid="1" gridSize="10" guides="1" tooltips="1" connect="1" arrows="1" fold="1" page="1" pageScale="1" pageWidth="850" pageHeight="1100" math="0" shadow="0">
      <root>
        <mxCell id="0" />
        <mxCell id="1" parent="0" />
        <mxCell id="23ZdZbCBUWPGeHxLLX78-39" value="SEMROS Architecture" style="swimlane;whiteSpace=wrap;html=1;startSize=20;" parent="1" vertex="1">
          <mxGeometry x="60" y="120" width="640" height="460" as="geometry" />
        </mxCell>
        <mxCell id="23ZdZbCBUWPGeHxLLX78-2" value="SEMROS Frontend" style="rounded=0;whiteSpace=wrap;html=1;" parent="23ZdZbCBUWPGeHxLLX78-39" vertex="1">
          <mxGeometry x="55" y="60" width="140" height="40" as="geometry" />
        </mxCell>
        <mxCell id="23ZdZbCBUWPGeHxLLX78-7" value="SEMROS Backend" style="rounded=0;whiteSpace=wrap;html=1;" parent="23ZdZbCBUWPGeHxLLX78-39" vertex="1">
          <mxGeometry x="150" y="190" width="140" height="40" as="geometry" />
        </mxCell>
        <mxCell id="23ZdZbCBUWPGeHxLLX78-8" value="SEMROS Database&lt;br&gt;(Cloud)" style="shape=cylinder3;whiteSpace=wrap;html=1;boundedLbl=1;backgroundOutline=1;size=15;" parent="23ZdZbCBUWPGeHxLLX78-39" vertex="1">
          <mxGeometry x="175" y="290" width="90" height="100" as="geometry" />
        </mxCell>
        <mxCell id="23ZdZbCBUWPGeHxLLX78-13" value="" style="endArrow=classicThin;html=1;rounded=0;entryX=0.5;entryY=0;entryDx=0;entryDy=0;entryPerimeter=0;exitX=0.5;exitY=1;exitDx=0;exitDy=0;startArrow=classic;startFill=1;endFill=1;" parent="23ZdZbCBUWPGeHxLLX78-39" source="23ZdZbCBUWPGeHxLLX78-7" target="23ZdZbCBUWPGeHxLLX78-8" edge="1">
          <mxGeometry width="50" height="50" relative="1" as="geometry">
            <mxPoint x="340" y="310" as="sourcePoint" />
            <mxPoint x="390" y="260" as="targetPoint" />
          </mxGeometry>
        </mxCell>
        <mxCell id="23ZdZbCBUWPGeHxLLX78-20" value="Solution Generator" style="rounded=0;whiteSpace=wrap;html=1;" parent="23ZdZbCBUWPGeHxLLX78-39" vertex="1">
          <mxGeometry x="245" y="60" width="120" height="40" as="geometry" />
        </mxCell>
        <mxCell id="23ZdZbCBUWPGeHxLLX78-41" value="" style="endArrow=none;html=1;rounded=0;exitX=0.5;exitY=1;exitDx=0;exitDy=0;entryX=0.25;entryY=0;entryDx=0;entryDy=0;" parent="23ZdZbCBUWPGeHxLLX78-39" source="23ZdZbCBUWPGeHxLLX78-2" target="23ZdZbCBUWPGeHxLLX78-7" edge="1">
          <mxGeometry width="50" height="50" relative="1" as="geometry">
            <mxPoint x="265" y="460" as="sourcePoint" />
            <mxPoint x="315" y="410" as="targetPoint" />
          </mxGeometry>
        </mxCell>
        <mxCell id="23ZdZbCBUWPGeHxLLX78-42" value="" style="endArrow=none;html=1;rounded=0;entryX=0.5;entryY=1;entryDx=0;entryDy=0;exitX=0.68;exitY=-0.012;exitDx=0;exitDy=0;exitPerimeter=0;" parent="23ZdZbCBUWPGeHxLLX78-39" source="23ZdZbCBUWPGeHxLLX78-7" target="23ZdZbCBUWPGeHxLLX78-20" edge="1">
          <mxGeometry width="50" height="50" relative="1" as="geometry">
            <mxPoint x="380" y="210" as="sourcePoint" />
            <mxPoint x="430" y="160" as="targetPoint" />
          </mxGeometry>
        </mxCell>
        <mxCell id="23ZdZbCBUWPGeHxLLX78-45" value="Legend" style="swimlane;whiteSpace=wrap;html=1;" parent="23ZdZbCBUWPGeHxLLX78-39" vertex="1">
          <mxGeometry x="370" y="330" width="270" height="90" as="geometry" />
        </mxCell>
        <mxCell id="23ZdZbCBUWPGeHxLLX78-46" value="" style="endArrow=classic;startArrow=classic;html=1;rounded=0;" parent="23ZdZbCBUWPGeHxLLX78-45" edge="1">
          <mxGeometry width="50" height="50" relative="1" as="geometry">
            <mxPoint x="30" y="40" as="sourcePoint" />
            <mxPoint x="90" y="40" as="targetPoint" />
          </mxGeometry>
        </mxCell>
        <mxCell id="23ZdZbCBUWPGeHxLLX78-47" value="Reads and Writes" style="text;html=1;align=center;verticalAlign=middle;resizable=0;points=[];autosize=1;strokeColor=none;fillColor=none;" parent="23ZdZbCBUWPGeHxLLX78-45" vertex="1">
          <mxGeometry x="120" y="28" width="120" height="30" as="geometry" />
        </mxCell>
        <mxCell id="23ZdZbCBUWPGeHxLLX78-48" value="" style="endArrow=none;html=1;rounded=0;" parent="23ZdZbCBUWPGeHxLLX78-45" edge="1">
          <mxGeometry width="50" height="50" relative="1" as="geometry">
            <mxPoint x="30" y="70" as="sourcePoint" />
            <mxPoint x="90" y="70" as="targetPoint" />
          </mxGeometry>
        </mxCell>
        <mxCell id="23ZdZbCBUWPGeHxLLX78-49" value="Queries/Interacts" style="text;html=1;align=center;verticalAlign=middle;resizable=0;points=[];autosize=1;strokeColor=none;fillColor=none;" parent="23ZdZbCBUWPGeHxLLX78-45" vertex="1">
          <mxGeometry x="125" y="58" width="110" height="30" as="geometry" />
        </mxCell>
      </root>
    </mxGraphModel>
  </diagram>
</mxfile>
